<svg id="Layer_1" data-name="Layer 1" xmlns="http://www.w3.org/2000/svg" viewBox="0 0 336 353.5"><defs><style>.cls-1,.cls-4,.cls-5{fill:#fff;}.cls-2,.cls-3{fill:none;}.cls-2,.cls-3,.cls-4,.cls-5{stroke:#fff;}.cls-2,.cls-3,.cls-5{stroke-linecap:round;stroke-linejoin:round;}.cls-2{stroke-width:16px;}.cls-3{stroke-width:17px;}.cls-4{stroke-miterlimit:10;}.cls-5{stroke-width:10px;}</style></defs><title>bleeding tapes logo</title><path class="cls-1" d="M110.27,241a1.89,1.89,0,0,1-1.52-.73,1.87,1.87,0,0,1-.38-1.64L120,186.55a2,2,0,0,1,1.9-1.52h144a2,2,0,0,1,1.9,1.52l11.58,52.11a1.95,1.95,0,0,1-1.9,2.37Z" transform="translate(-23.87 -25.03)"/><path class="cls-1" d="M126.7,193H261l8.89,40H117.81l8.89-40m-4.85-16a9.94,9.94,0,0,0-9.71,7.78l-11.58,52.12a9.94,9.94,0,0,0,9.71,12.1h167.2a10,10,0,0,0,9.71-12.1L275.6,184.81a9.94,9.94,0,0,0-9.71-7.78Z" transform="translate(-23.87 -25.03)"/><path class="cls-2" d="M343.87,165h-35l16,68h11.39a15.61,15.61,0,0,0,15.61-15.61V49a16,16,0,0,0-16-16H47.48A15.61,15.61,0,0,0,31.87,48.64V217.41A15.61,15.61,0,0,0,47.48,233H86.87l16-68h-63" transform="translate(-23.87 -25.03)"/><path class="cls-3" d="M287.87,109h0a16,16,0,0,0-16-16h-160a16,16,0,0,0-16,16v4a16,16,0,0,0,16,16H264.2a16,16,0,0,1,15.57,12.33c9.7,41.22,20.9,84.94,30.6,126.17,0,0,31.58,88.83-68,101-90,11-69.22-41.66-82-59-14-19-69-12-50-76" transform="translate(-23.87 -25.03)"/><polygon class="cls-4" points="8 200 56 208 76 143 8 147 8 200"/><polygon class="cls-1" points="328 200 304 208 288 140 320 136 328 200"/><path class="cls-5" d="M79.87,136.81c-6.64-2.81-11.5-11.67-11.5-22.17v-5.78c0-10.51,4.86-19.36,11.5-22.17V85h-24v52h24Z" transform="translate(-23.87 -25.03)"/><path class="cls-5" d="M303.87,136.81c6.64-2.81,11.5-11.67,11.5-22.17v-5.78c0-10.51-4.86-19.36-11.5-22.17V85h24v52h-24Z" transform="translate(-23.87 -25.03)"/></svg>